<svg width="20" height="20" viewBox="0 0 20 20" fill="none" xmlns="http://www.w3.org/2000/svg">
<path d="M10 2.09375C12.0961 2.09623 14.1057 2.92994 15.5879 4.41211C17.0701 5.89428 17.9038 7.90389 17.9062 10C17.9062 11.5637 17.4429 13.0924 16.5742 14.3926C15.7055 15.6928 14.4701 16.7063 13.0254 17.3047C11.5809 17.903 9.99147 18.0589 8.45801 17.7539C6.92435 17.4488 5.51489 16.6965 4.40918 15.5908C3.30347 14.4851 2.55116 13.0757 2.24609 11.542C1.94114 10.0085 2.09704 8.41911 2.69531 6.97461C3.29372 5.52993 4.30725 4.29453 5.60742 3.42578C6.82624 2.61142 8.24601 2.15378 9.70703 2.09961L10 2.09375ZM12.7148 3.44629C11.4186 2.90939 9.99225 2.76927 8.61621 3.04297C7.24016 3.31668 5.97645 3.9923 4.98438 4.98438C3.9923 5.97645 3.31668 7.24016 3.04297 8.61621C2.76927 9.99225 2.90939 11.4186 3.44629 12.7148C3.98319 14.0109 4.89215 15.119 6.05859 15.8984C7.15223 16.6292 8.42633 17.0403 9.7373 17.0889L10 17.0938C11.8807 17.0917 13.6838 16.3435 15.0137 15.0137C16.3435 13.6838 17.0917 11.8807 17.0938 10C17.0938 8.59699 16.6779 7.22515 15.8984 6.05859C15.119 4.89215 14.0109 3.98319 12.7148 3.44629ZM10 6.46875C10.1077 6.46875 10.2109 6.51171 10.2871 6.58789C10.3633 6.66408 10.4062 6.76726 10.4062 6.875V9.59375H13.125C13.2327 9.59375 13.3359 9.63671 13.4121 9.71289C13.4883 9.78908 13.5312 9.89226 13.5312 10C13.5312 10.1077 13.4883 10.2109 13.4121 10.2871C13.3359 10.3633 13.2327 10.4062 13.125 10.4062H10.4062V13.125C10.4062 13.2327 10.3633 13.3359 10.2871 13.4121C10.2109 13.4883 10.1077 13.5312 10 13.5312C9.89226 13.5312 9.78908 13.4883 9.71289 13.4121C9.63671 13.3359 9.59375 13.2327 9.59375 13.125V10.4062H6.875C6.76726 10.4062 6.66408 10.3633 6.58789 10.2871C6.51171 10.2109 6.46875 10.1077 6.46875 10C6.46875 9.89226 6.51171 9.78908 6.58789 9.71289C6.66408 9.6367 6.76726 9.59375 6.875 9.59375H9.59375V6.875C9.59375 6.76726 9.63671 6.66408 9.71289 6.58789C9.78908 6.5117 9.89226 6.46875 10 6.46875Z" fill="#2B2829" stroke="#828F9B" stroke-width="0.125"/>
</svg>
