<svg width="20" height="20" viewBox="0 0 20 20" fill="none" xmlns="http://www.w3.org/2000/svg">
<path d="M12.9625 17.5C12.9625 17.6243 12.9131 17.7436 12.8252 17.8315C12.7373 17.9194 12.618 17.9688 12.4937 17.9688H7.49373C7.36941 17.9688 7.25018 17.9194 7.16227 17.8315C7.07436 17.7436 7.02498 17.6243 7.02498 17.5C7.02498 17.3757 7.07436 17.2565 7.16227 17.1686C7.25018 17.0806 7.36941 17.0313 7.49373 17.0313H12.4937C12.618 17.0313 12.7373 17.0806 12.8252 17.1686C12.9131 17.2565 12.9625 17.3757 12.9625 17.5ZM17.6258 4.7836C16.9364 3.43531 15.9007 2.29472 14.625 1.47892C14.5201 1.41831 14.3958 1.40067 14.2782 1.4297C14.1606 1.45873 14.0587 1.53216 13.9941 1.63461C13.9294 1.73705 13.9069 1.86055 13.9313 1.97922C13.9557 2.09788 14.0251 2.20248 14.125 2.2711C15.2643 2.99436 16.1874 4.01162 16.7969 5.21563C16.8252 5.27027 16.8641 5.31878 16.9112 5.35839C16.9583 5.39801 17.0128 5.42796 17.0714 5.44653C17.1301 5.4651 17.1919 5.47193 17.2532 5.46663C17.3146 5.46133 17.3743 5.444 17.4289 5.41563C17.4835 5.38727 17.532 5.34842 17.5716 5.3013C17.6113 5.25419 17.6412 5.19973 17.6598 5.14104C17.6784 5.08235 17.6852 5.02058 17.6799 4.95925C17.6746 4.89792 17.6573 4.83823 17.6289 4.7836H17.6258ZM3.2031 5.21563C3.8126 4.01162 4.73566 2.99436 5.87498 2.2711C5.97482 2.20248 6.04421 2.09788 6.06861 1.97922C6.09301 1.86055 6.07053 1.73705 6.00587 1.63461C5.94121 1.53216 5.83939 1.45873 5.72178 1.4297C5.60416 1.40067 5.47988 1.41831 5.37498 1.47892C4.09922 2.29472 3.06353 3.43531 2.3742 4.7836C2.34004 4.83842 2.31758 4.8997 2.30823 4.96361C2.29887 5.02751 2.30282 5.09266 2.31984 5.15497C2.33685 5.21727 2.36655 5.27539 2.40709 5.32567C2.44762 5.37596 2.49811 5.41732 2.55538 5.44718C2.61265 5.47703 2.67548 5.49472 2.73991 5.49915C2.80435 5.50357 2.869 5.49463 2.92982 5.47289C2.99064 5.45115 3.04631 5.41708 3.09333 5.37281C3.14036 5.32854 3.17773 5.27503 3.2031 5.21563ZM17.1875 13.8227C17.2844 13.9884 17.3361 14.1767 17.3372 14.3686C17.3383 14.5606 17.2889 14.7495 17.1939 14.9163C17.0989 15.0831 16.9616 15.222 16.7959 15.319C16.6302 15.416 16.442 15.4676 16.25 15.4688H3.74998C3.55841 15.4679 3.37044 15.4167 3.20486 15.3203C3.03929 15.224 2.90193 15.0858 2.80653 14.9197C2.71113 14.7536 2.66103 14.5653 2.66125 14.3738C2.66147 14.1822 2.712 13.994 2.80779 13.8281C3.52576 12.5844 3.90623 10.8297 3.90623 8.75001C3.90623 7.13385 4.54825 5.58388 5.69105 4.44108C6.83385 3.29828 8.38381 2.65626 9.99998 2.65626C11.6161 2.65626 13.1661 3.29828 14.3089 4.44108C15.4517 5.58388 16.0937 7.13385 16.0937 8.75001C16.0937 10.8594 16.464 12.5656 17.1937 13.8227H17.1875ZM16.3773 14.2914C15.5695 12.8906 15.1562 11.0266 15.1562 8.75001C15.1562 7.38249 14.613 6.07097 13.646 5.10399C12.679 4.13701 11.3675 3.59376 9.99998 3.59376C8.63246 3.59376 7.32094 4.13701 6.35396 5.10399C5.38697 6.07097 4.84373 7.38249 4.84373 8.75001C4.84373 11.0281 4.43045 12.8906 3.61638 14.2969C3.60267 14.3206 3.59545 14.3476 3.59545 14.375C3.59545 14.4024 3.60267 14.4294 3.61638 14.4531C3.62925 14.4771 3.64844 14.497 3.67186 14.5108C3.69528 14.5246 3.72203 14.5316 3.7492 14.5313H16.25C16.2771 14.5316 16.3039 14.5246 16.3273 14.5108C16.3507 14.497 16.3699 14.4771 16.3828 14.4531C16.3966 14.4295 16.404 14.4025 16.4041 14.3751C16.4043 14.3477 16.3972 14.3207 16.3836 14.2969L16.3773 14.2914Z" fill="#2B2829"/>
</svg>
