<svg width="16" height="18" viewBox="0 0 16 18" fill="none" xmlns="http://www.w3.org/2000/svg">
<path d="M15.3281 12.7453C14.8945 11.9984 14.2499 9.88516 14.2499 7.125C14.2499 5.4674 13.5915 3.87769 12.4194 2.70558C11.2473 1.53348 9.65755 0.875 7.99995 0.875C6.34235 0.875 4.75263 1.53348 3.58053 2.70558C2.40843 3.87769 1.74995 5.4674 1.74995 7.125C1.74995 9.88594 1.10464 11.9984 0.671043 12.7453C0.560317 12.9352 0.501616 13.1509 0.500862 13.3707C0.500107 13.5905 0.557325 13.8066 0.666745 13.9973C0.776165 14.1879 0.933917 14.3463 1.12409 14.4565C1.31427 14.5667 1.53015 14.6248 1.74995 14.625H4.93823C5.08243 15.3306 5.46591 15.9647 6.0238 16.4201C6.5817 16.8756 7.27977 17.1243 7.99995 17.1243C8.72012 17.1243 9.4182 16.8756 9.97609 16.4201C10.534 15.9647 10.9175 15.3306 11.0617 14.625H14.2499C14.4697 14.6247 14.6855 14.5665 14.8755 14.4562C15.0656 14.346 15.2232 14.1875 15.3326 13.9969C15.4419 13.8063 15.499 13.5903 15.4983 13.3705C15.4975 13.1508 15.4388 12.9351 15.3281 12.7453ZM7.99995 15.875C7.61231 15.8749 7.23423 15.7546 6.91776 15.5308C6.60129 15.3069 6.36198 14.9905 6.23276 14.625H9.76714C9.63792 14.9905 9.39861 15.3069 9.08214 15.5308C8.76567 15.7546 8.38759 15.8749 7.99995 15.875ZM1.74995 13.375C2.35151 12.3406 2.99995 9.94375 2.99995 7.125C2.99995 5.79892 3.52673 4.52715 4.46442 3.58947C5.4021 2.65178 6.67387 2.125 7.99995 2.125C9.32603 2.125 10.5978 2.65178 11.5355 3.58947C12.4732 4.52715 12.9999 5.79892 12.9999 7.125C12.9999 9.94141 13.6468 12.3383 14.2499 13.375H1.74995Z" fill="#828F9B"/>
</svg>
