<svg width="9" height="9" viewBox="0 0 9 9" fill="none" xmlns="http://www.w3.org/2000/svg">
<path d="M0.2509 0.726146C0.335073 0.580015 0.4566 0.458901 0.603017 0.375225C0.749434 0.291548 0.915471 0.24832 1.0841 0.249974L7.91613 0.249974C8.08477 0.24832 8.2508 0.291548 8.39722 0.375225C8.54364 0.458901 8.66516 0.580015 8.74934 0.726146C8.83147 0.866725 8.87476 1.02661 8.87476 1.18943C8.87476 1.35224 8.83147 1.51213 8.74934 1.65271L5.3341 7.58513C5.24874 7.73047 5.12688 7.85098 4.98059 7.93472C4.8343 8.01845 4.66867 8.0625 4.50012 8.0625C4.33156 8.0625 4.16593 8.01845 4.01965 7.93472C3.87336 7.85098 3.7515 7.73047 3.66613 7.58513L0.250119 1.65271C0.168103 1.51206 0.124953 1.35214 0.125091 1.18932C0.125228 1.02651 0.168648 0.866656 0.2509 0.726146Z" fill="#FF6154"/>
</svg>
