<svg width="16" height="14" viewBox="0 0 16 14" fill="none" xmlns="http://www.w3.org/2000/svg">
<path d="M15.2063 7.33125L9.58125 12.9562C9.49239 13.039 9.37486 13.0841 9.25342 13.082C9.13199 13.0798 9.01612 13.0306 8.93024 12.9448C8.84435 12.8589 8.79516 12.743 8.79302 12.6216C8.79087 12.5001 8.83595 12.3826 8.91875 12.2937L13.743 7.46875H1.125C1.00068 7.46875 0.881451 7.41936 0.793544 7.33145C0.705636 7.24355 0.65625 7.12432 0.65625 7C0.65625 6.87568 0.705636 6.75645 0.793544 6.66854C0.881451 6.58063 1.00068 6.53125 1.125 6.53125H13.743L8.91875 1.70625C8.83595 1.61739 8.79087 1.49986 8.79302 1.37842C8.79516 1.25698 8.84435 1.14112 8.93024 1.05523C9.01612 0.969349 9.13199 0.920154 9.25342 0.918011C9.37486 0.915869 9.49239 0.960945 9.58125 1.04375L15.2063 6.66875C15.294 6.75664 15.3433 6.87578 15.3433 7C15.3433 7.12422 15.294 7.24336 15.2063 7.33125Z" fill="#2B2829"/>
</svg>
