<svg width="13" height="11" viewBox="0 0 13 11" fill="none" xmlns="http://www.w3.org/2000/svg">
<path d="M12.497 5.316L8.122 0.940996C8.06084 0.879774 7.98291 0.838062 7.89805 0.821135C7.81319 0.804208 7.72521 0.812827 7.64525 0.845901C7.56529 0.878975 7.49693 0.935018 7.44882 1.00694C7.40071 1.07887 7.37501 1.16345 7.37497 1.24998V3.45662C5.95637 3.57803 4.38958 4.27256 3.10059 5.36576C1.54856 6.68264 0.582232 8.37959 0.379342 10.1438C0.363487 10.281 0.391297 10.4196 0.458816 10.5401C0.526334 10.6605 0.63012 10.7566 0.755404 10.8146C0.880688 10.8727 1.02109 10.8897 1.15662 10.8633C1.29215 10.837 1.41591 10.7685 1.51028 10.6677C2.11184 10.0273 4.25231 8.00225 7.37497 7.82397V9.99998C7.37501 10.0865 7.40071 10.1711 7.44882 10.243C7.49693 10.3149 7.56529 10.371 7.64525 10.4041C7.72521 10.4371 7.81319 10.4458 7.89805 10.4288C7.98291 10.4119 8.06084 10.3702 8.122 10.309L12.497 5.93397C12.5788 5.85195 12.6248 5.74083 12.6248 5.62498C12.6248 5.50913 12.5788 5.39801 12.497 5.316ZM8.24997 8.94396V7.37498C8.24997 7.25895 8.20387 7.14767 8.12183 7.06562C8.03978 6.98357 7.9285 6.93748 7.81247 6.93748C6.27684 6.93748 4.78114 7.33834 3.36692 8.12967C2.64666 8.53448 1.97557 9.02114 1.367 9.57998C1.68419 8.27623 2.48372 7.03647 3.66661 6.03295C4.93645 4.95615 6.48629 4.31248 7.81247 4.31248C7.9285 4.31248 8.03978 4.26639 8.12183 4.18434C8.20387 4.10229 8.24997 3.99101 8.24997 3.87498V2.30654L11.569 5.62498L8.24997 8.94396Z" fill="#60707A"/>
</svg>
