<svg width="10" height="9" viewBox="0 0 10 9" fill="none" xmlns="http://www.w3.org/2000/svg">
<path d="M9.24922 8.27382C9.16505 8.41995 9.04352 8.54107 8.89711 8.62474C8.75069 8.70842 8.58465 8.75165 8.41602 8.75H1.58399C1.41536 8.75165 1.24932 8.70842 1.1029 8.62474C0.956485 8.54107 0.834959 8.41995 0.750785 8.27382C0.668651 8.13324 0.625366 7.97336 0.625366 7.81054C0.625366 7.64773 0.668651 7.48784 0.750785 7.34726L4.16602 1.41484C4.25138 1.2695 4.37325 1.14899 4.51953 1.06525C4.66582 0.981519 4.83145 0.937469 5 0.937469C5.16856 0.937469 5.33419 0.981519 5.48047 1.06525C5.62676 1.14899 5.74863 1.2695 5.83399 1.41484L9.25 7.34726C9.33202 7.48791 9.37517 7.64783 9.37503 7.81065C9.37489 7.97346 9.33147 8.13331 9.24922 8.27382Z" fill="#2EB200"/>
</svg>
