<svg width="14" height="14" viewBox="0 0 14 14" fill="none" xmlns="http://www.w3.org/2000/svg">
<path d="M5.24996 7.00002L6.41663 8.16669L9.04163 5.54169M10.4423 2.91582C10.5624 3.20633 10.793 3.43725 11.0833 3.55781L12.1013 3.97951C12.3919 4.09985 12.6227 4.33068 12.743 4.62122C12.8634 4.91176 12.8634 5.2382 12.743 5.52874L12.3217 6.54607C12.2013 6.83674 12.2011 7.16351 12.322 7.45404L12.7427 8.47107C12.8023 8.61497 12.8331 8.76921 12.8331 8.92499C12.8331 9.08077 12.8024 9.23502 12.7428 9.37894C12.6832 9.52286 12.5958 9.65362 12.4857 9.76375C12.3755 9.87389 12.2447 9.96123 12.1008 10.0208L11.0835 10.4422C10.793 10.5623 10.5621 10.7929 10.4415 11.0832L10.0198 12.1013C9.8995 12.3918 9.66868 12.6227 9.37816 12.743C9.08763 12.8633 8.76119 12.8633 8.47067 12.743L7.45337 12.3216C7.16284 12.2016 6.83652 12.2018 6.54617 12.3223L5.52815 12.7434C5.23778 12.8634 4.91163 12.8633 4.62134 12.7431C4.33105 12.6228 4.10036 12.3923 3.97993 12.1021L3.55813 11.0837C3.43801 10.7932 3.20744 10.5623 2.91712 10.4417L1.8991 10.02C1.6087 9.89972 1.37794 9.66903 1.25756 9.37866C1.13717 9.08829 1.13701 8.762 1.2571 8.4715L1.67848 7.45417C1.79852 7.16363 1.79828 6.8373 1.6778 6.54694L1.25703 5.52814C1.19737 5.38424 1.16665 5.23 1.16663 5.07422C1.1666 4.91845 1.19727 4.76419 1.25688 4.62027C1.31649 4.47635 1.40388 4.34559 1.51404 4.23546C1.6242 4.12533 1.75499 4.03798 1.89892 3.97841L2.91622 3.55702C3.20647 3.437 3.43724 3.20672 3.55789 2.91672L3.97957 1.89866C4.09991 1.60812 4.33073 1.37729 4.62126 1.25695C4.91178 1.1366 5.23822 1.1366 5.52874 1.25695L6.54604 1.67834C6.83657 1.79839 7.16289 1.79814 7.45324 1.67766L8.47169 1.2576C8.76218 1.13732 9.08854 1.13735 9.37901 1.25767C9.66948 1.37799 9.90028 1.60875 10.0206 1.89922L10.4424 2.91758L10.4423 2.91582Z" stroke="#3C00FF" stroke-linecap="round" stroke-linejoin="round"/>
</svg>
